HIERARCHY
ROOT Hips
{
	OFFSET	0.00	0.00	0.00
	CHANNELS 6 Xposition Yposition Zposition Zrotation Xrotation Yrotation
	JOINT LeftUpLeg
	{
		OFFSET	 0.126116	-0.014019	-0.065224
		CHANNELS 3 Zrotation Xrotation Yrotation
		JOINT LeftLeg
		{
			OFFSET	 0.000000	 0.000000	 0.569914
			CHANNELS 3 Zrotation Xrotation Yrotation
			JOINT LeftFoot
			{
				OFFSET	 0.000000	 0.000000	 0.544423
				CHANNELS 3 Zrotation Xrotation Yrotation
				JOINT LeftToeBase
				{
					OFFSET	 0.000000	 0.000000	 0.207117
					CHANNELS 3 Zrotation Xrotation Yrotation
					End Site
					{
						OFFSET	 0.000000	 0.000000	 0.207117
					}
				}
			}
		}
	}
	JOINT RightUpLeg
	{
		OFFSET	-0.124023	-0.008373	-0.065224
		CHANNELS 3 Zrotation Xrotation Yrotation
		JOINT RightLeg
		{
			OFFSET	 0.000000	 0.000000	 0.570047
			CHANNELS 3 Zrotation Xrotation Yrotation
			JOINT RightFoot
			{
				OFFSET	 0.000000	 0.000000	 0.544354
				CHANNELS 3 Zrotation Xrotation Yrotation
				JOINT RightToeBase
				{
					OFFSET	 0.000000	 0.000000	 0.207540
					CHANNELS 3 Zrotation Xrotation Yrotation
					End Site
					{
						OFFSET	 0.000000	 0.000000	 0.207540
					}
				}
			}
		}
	}
	JOINT Spine
	{
		OFFSET	 0.000184	-0.007763	 0.117403
		CHANNELS 3 Zrotation Xrotation Yrotation
		JOINT Spine1
		{
			OFFSET	 0.000000	 0.000000	 0.137269
			CHANNELS 3 Zrotation Xrotation Yrotation
			JOINT Spine2
			{
				OFFSET	 0.000000	 0.000000	 0.156879
				CHANNELS 3 Zrotation Xrotation Yrotation
				JOINT LeftShoulder
				{
					OFFSET	 0.080501	-0.002496	 0.160144
					CHANNELS 3 Zrotation Xrotation Yrotation
					JOINT LeftArm
					{
						OFFSET	 0.000000	 0.000000	 0.164363
						CHANNELS 3 Zrotation Xrotation Yrotation
						JOINT LeftForeArm
						{
							OFFSET	 0.000000	 0.000000	 0.364576
							CHANNELS 3 Zrotation Xrotation Yrotation
							JOINT LeftHand
							{
								OFFSET	 0.000000	 0.000000	 0.360812
								CHANNELS 3 Zrotation Xrotation Yrotation
								JOINT LeftHandIndex1
								{
									OFFSET	 0.000000	 0.000000	 0.086006
									CHANNELS 3 Zrotation Xrotation Yrotation
									JOINT LeftHandIndex2
									{
										OFFSET	 0.000000	 0.000000	 0.047236
										CHANNELS 3 Zrotation Xrotation Yrotation
										JOINT LeftHandIndex3
										{
											OFFSET	-0.004284	-0.000551	 0.038166
											CHANNELS 3 Zrotation Xrotation Yrotation
											End Site
											{
												OFFSET	-0.004284	-0.000551	 0.038166
											}
										}
									}
								}
							}
						}
					}
				}
				JOINT Neck
				{
					OFFSET	 0.000000	 0.000000	 0.176489
					CHANNELS 3 Zrotation Xrotation Yrotation
					JOINT Head
					{
						OFFSET	 0.000000	-0.001747	 0.077940
						CHANNELS 3 Zrotation Xrotation Yrotation
						End Site
						{
							OFFSET	 0.000000	-0.001747	 0.077940
						}
					}
				}
				JOINT RightShoulder
				{
					OFFSET	-0.080363	 0.000306	 0.159706
					CHANNELS 3 Zrotation Xrotation Yrotation
					JOINT RightArm
					{
						OFFSET	 0.000000	 0.000000	 0.164196
						CHANNELS 3 Zrotation Xrotation Yrotation
						JOINT RightForeArm
						{
							OFFSET	 0.000000	 0.000000	 0.365611
							CHANNELS 3 Zrotation Xrotation Yrotation
							JOINT RightHand
							{
								OFFSET	 0.000000	 0.000000	 0.360648
								CHANNELS 3 Zrotation Xrotation Yrotation
								JOINT RightHandIndex1
								{
									OFFSET	 0.000000	 0.000000	 0.069977
									CHANNELS 3 Zrotation Xrotation Yrotation
									JOINT RightHandIndex2
									{
										OFFSET	 0.000000	 0.000000	 0.052305
										CHANNELS 3 Zrotation Xrotation Yrotation
										JOINT RightHandIndex3
										{
											OFFSET	 0.009002	-0.000782	 0.042196
											CHANNELS 3 Zrotation Xrotation Yrotation
											End Site
											{
												OFFSET	 0.009002	-0.000782	 0.042196
											}
										}
									}
								}
							}
						}
					}
				}
			}
		}
	}
}
MOTION
Frames:    12
Frame Time: 0.03333334
-0.045571	 0.233730	 1.008297	 0.800093	 34.837880	-6.291176	-56.543650	-85.892580	 125.977300	 9.795190	-77.513390	 9.975099	-36.700900	 78.277210	 44.040190	-2.385832	 28.452790	-0.000001	 96.522020	-76.114760	-93.965790	-23.617870	-79.668250	-18.191970	 58.648860	 75.917100	-54.355220	 2.384659	 28.388700	-0.000001	-2.593741	 15.570680	 1.829143	-3.195184	 23.023190	 4.650023	 1.423199	-1.294096	 1.361813	-99.140820	 68.199020	 156.861800	 13.891130	-3.391381	-37.854440	-3.025940	 13.419210	-43.949280	-24.393250	-15.552800	-18.134180	-2.027600	 6.559038	 9.033609	-5.188889	 0.308190	 3.541030	-5.234859	 0.342567	 0.430617	 0.312313	 17.364620	-5.901119	 3.457912	-26.494580	 0.807083	 97.425910	 64.643340	-159.143600	-2.844067	 3.832711	 48.367610	-6.741781	 0.510019	 29.272820	 8.881847	-14.453350	 13.910130	 1.803333	 3.979147	-15.098590	 4.898592	 3.004813	-9.310344	 5.224449	 0.395017	 2.014677
-0.045523	 0.232411	 1.021446	 0.227590	 33.598170	-5.319501	-46.069180	-83.407100	 136.689900	 8.311810	-76.185870	 8.479614	-36.291630	 77.723880	 43.338980	-2.385832	 28.452790	-0.000001	 86.287910	-76.554990	-104.634300	-21.675310	-77.987540	-16.186240	 54.577870	 75.760820	-50.052320	 2.384659	 28.388700	-0.000001	-2.951373	 15.910700	 1.895763	-3.022434	 24.230720	 4.662726	 2.337002	-3.100606	 0.692197	-98.519560	 68.739750	 157.975800	 13.295970	-0.244589	-40.009240	-2.679167	 13.048770	-43.932790	-24.904090	-15.366360	-18.960510	-2.027600	 6.559038	 9.033609	-5.188889	 0.308190	 3.541030	-5.234859	 0.342567	 0.430617	-0.479302	 11.348390	-4.140823	 3.889984	-20.668920	 0.025956	 97.080020	 64.154720	-160.447400	-3.607507	 3.310090	 49.371230	-6.047136	 0.922485	 29.890700	 8.375875	-13.704030	 15.571680	 1.803333	 3.979147	-15.098590	 4.898592	 3.004813	-9.310344	 5.224449	 0.395017	 2.014677
-0.044646	 0.231856	 1.039828	-0.249246	 31.918610	-4.386641	-38.243490	-80.091560	 144.954700	 6.928099	-74.012210	 7.063482	-35.130190	 76.919200	 41.691590	-2.385833	 28.452750	 0.000004	 72.005840	-76.173170	-119.225700	-19.730920	-75.507770	-14.139480	 49.745220	 75.373440	-44.874620	 2.384659	 28.388700	-0.000001	-3.406676	 16.435620	 1.989594	-2.861567	 25.182950	 4.616989	 2.975766	-5.179955	 0.092126	-97.294760	 70.449580	 159.259600	 13.414760	 4.401812	-42.569010	-2.231334	 12.536010	-43.828020	-25.671100	-15.863410	-20.687150	-2.027600	 6.559038	 9.033609	-5.188889	 0.308190	 3.541030	-5.234859	 0.342567	 0.430617	-1.014621	 3.322525	-2.447645	 4.089904	-13.038370	-1.218594	 96.586260	 64.390010	-161.486700	-4.590445	 4.107607	 50.021270	-6.155359	 0.886692	 30.647060	 7.589293	-13.087130	 16.756580	 1.803333	 3.979147	-15.098590	 4.898592	 3.004813	-9.310344	 5.224449	 0.395017	 2.014677
-0.042599	 0.233026	 1.059753	-0.539388	 30.007120	-3.506143	-33.107450	-76.519730	 150.572600	 6.404325	-71.459340	 6.469937	-33.453810	 76.122310	 39.329930	-2.385833	 28.452750	 0.000004	 57.890720	-74.728950	-133.493300	-18.436630	-72.663610	-12.706640	 45.635880	 74.823280	-40.219920	 2.384659	 28.388700	-0.000001	-3.820580	 17.136990	 1.980911	-2.682570	 25.843380	 4.346574	 3.379512	-7.140388	-0.192921	-95.133380	 73.936490	 160.243300	 14.746190	 10.362040	-46.295720	-1.830825	 11.892020	-43.285520	-26.819740	-17.139980	-22.333410	-2.027600	 6.559038	 9.033609	-5.188889	 0.308190	 3.541030	-5.234859	 0.342567	 0.430617	-1.342342	-4.638253	-2.154370	 4.436590	-5.405744	-1.610393	 95.449950	 66.561070	-162.604800	-5.872568	 7.429932	 51.403150	-6.690097	 0.587150	 31.408820	 7.503159	-14.260040	 17.633850	 1.803333	 3.979147	-15.098590	 4.898592	 3.004813	-9.310344	 5.224449	 0.395017	 2.014677
-0.038486	 0.233511	 1.086519	-0.422450	 27.602610	-2.645885	-29.029290	-71.814540	 155.553300	 6.057723	-67.766580	 6.041594	-30.111880	 74.963990	 35.068550	-2.385833	 28.452750	 0.000004	 44.245960	-71.432670	-147.124600	-14.560560	-68.934590	-8.795321	 41.208780	 74.016180	-35.939670	 2.384659	 28.388700	-0.000001	-4.260597	 17.665130	 1.688068	-2.607073	 26.324910	 3.818173	 3.638533	-9.413309	-0.324430	-93.077360	 76.824630	 161.469600	 17.932730	 15.568420	-49.707500	-1.188450	 11.218670	-43.215700	-27.461000	-19.230610	-24.288490	-2.027600	 6.559038	 9.033609	-5.188889	 0.308190	 3.541030	-5.234859	 0.342567	 0.430617	-1.664526	-13.187860	-2.325107	 4.689724	 2.713091	-1.901953	 94.221050	 68.927100	-163.863100	-8.129118	 11.246410	 52.136770	-7.192170	 0.298734	 33.030220	 7.595923	-16.423570	 18.167810	 1.803333	 3.979147	-15.098590	 4.898592	 3.004813	-9.310344	 5.224449	 0.395017	 2.014677
-0.031811	 0.229526	 1.119700	 0.471279	 25.537910	-2.007742	-25.726830	-66.756690	 160.122100	 5.538043	-62.808520	 5.300489	-24.642850	 73.438710	 28.819030	-2.385833	 28.452750	 0.000004	 34.751100	-66.770250	-156.181600	-10.999230	-64.178410	-5.272034	 37.263260	 72.618630	-32.068230	 2.384659	 28.388700	-0.000001	-4.413628	 16.764920	 0.698071	-2.672652	 26.398450	 2.998250	 3.704045	-11.833520	-0.484830	-94.089170	 74.772410	 163.805200	 21.337210	 17.191500	-47.948520	 0.060021	 10.998200	-45.967920	-26.927630	-21.673050	-26.037080	-2.027600	 6.559038	 9.033609	-5.188889	 0.308190	 3.541030	-5.234859	 0.342567	 0.430617	-1.709766	-14.855840	-0.994737	 4.741049	 4.301192	-2.650099	 93.818080	 68.952060	-165.294900	-10.753590	 13.861950	 49.849570	-7.689822	-0.028787	 36.988470	 7.458941	-18.961970	 18.563090	 1.803333	 3.979147	-15.098590	 4.898592	 3.004813	-9.310344	 5.224449	 0.395017	 2.014677
-0.025261	 0.222007	 1.158750	 1.332064	 23.540220	-1.359051	-23.617030	-60.736990	 163.505200	 4.824900	-56.529660	 4.375973	-19.819180	 71.211210	 23.205460	-2.385833	 28.452750	 0.000004	 27.662530	-60.974780	-162.830200	-8.164034	-57.940780	-2.558218	 31.906640	 70.648410	-26.816560	 2.384659	 28.388700	-0.000001	-4.491930	 14.916250	-0.013156	-2.328766	 26.280920	 1.993005	 3.390237	-14.635780	-0.445912	-94.640270	 72.834950	 165.804700	 25.441930	 18.181620	-45.164850	 1.570943	 10.796230	-49.978330	-26.445140	-25.168620	-26.272130	-2.027600	 6.559038	 9.033609	-5.188889	 0.308190	 3.541030	-5.234859	 0.342567	 0.430617	-1.831538	-15.213470	-0.837559	 4.596784	 4.735389	-2.500810	 93.980730	 66.190540	-167.356300	-13.512690	 14.382280	 45.693130	-8.060971	-0.380683	 42.917660	 7.266448	-22.202570	 18.901860	 1.803333	 3.979147	-15.098590	 4.898592	 3.004813	-9.310344	 5.224449	 0.395017	 2.014677
-0.020213	 0.214044	 1.199231	 2.124227	 21.168030	-0.765789	-21.887880	-53.665190	 166.380400	 4.083070	-49.288630	 3.413713	-16.250930	 69.061260	 18.940450	-2.385833	 28.452750	 0.000004	 22.467380	-53.931770	-167.762400	-5.932172	-50.201290	-0.603818	 26.461170	 68.442160	-21.414570	 2.384659	 28.388700	-0.000001	-4.157470	 12.453650	-0.457126	-1.700793	 25.840330	 0.807407	 2.841468	-16.837260	-0.403566	-94.806920	 71.158200	 167.713200	 28.918700	 19.005290	-42.906300	 3.088457	 10.449960	-54.314470	-26.466830	-29.826470	-25.844700	-2.027600	 6.559038	 9.033609	-5.188889	 0.308190	 3.541030	-5.234859	 0.342567	 0.430617	-1.863842	-14.591030	-0.643138	 4.107200	 4.528268	-2.498241	 93.715600	 64.491120	-169.201200	-15.722700	 15.353090	 41.468280	-8.490621	-0.970097	 49.136110	 7.713342	-27.073980	 19.247040	 1.803333	 3.979147	-15.098590	 4.898592	 3.004813	-9.310344	 5.224449	 0.395017	 2.014677
-0.015712	 0.202411	 1.233193	 2.638800	 17.187710	-0.232342	-19.519870	-44.948960	 169.863900	 3.301317	-42.779940	 2.527021	-12.462570	 67.811130	 14.754210	-2.385833	 28.452750	 0.000004	 19.216660	-44.970290	-171.547800	-4.237535	-43.123930	 0.621226	 22.524710	 67.020450	-17.304120	 2.384659	 28.388700	-0.000001	-3.645338	 10.317700	-0.708196	-1.275446	 24.895940	 0.124173	 2.055284	-17.635120	-0.313083	-94.584550	 70.354330	 169.457100	 31.004450	 19.634410	-41.610950	 4.418040	 9.911120	-58.197360	-27.785810	-35.843800	-27.049340	-2.027600	 6.559038	 9.033609	-5.188889	 0.308190	 3.541030	-5.234859	 0.342567	 0.430617	-1.922118	-13.015750	-0.909856	 3.326005	 3.646813	-2.336621	 93.327400	 63.535390	-170.712800	-17.673750	 16.862250	 39.605850	-8.933541	-1.677570	 52.604770	 9.003397	-33.112190	 20.415350	 1.803333	 3.979147	-15.098590	 4.898592	 3.004813	-9.310344	 5.224449	 0.395017	 2.014677
-0.012047	 0.186674	 1.260047	 3.024372	 12.899380	-0.260455	-17.460160	-35.546700	 173.377700	 2.583741	-35.690490	 1.751440	-8.496945	 65.881460	 10.480190	-2.385833	 28.452760	 0.000004	 17.531290	-35.305770	-173.788500	-2.955060	-35.940140	 1.286525	 18.599300	 65.603160	-13.207190	 2.384659	 28.388700	-0.000001	-2.942092	 7.598676	-0.542296	-1.055132	 22.709180	-0.065057	 1.003109	-17.355280	-0.088045	-94.248150	 70.014600	 170.988300	 32.666200	 20.064080	-40.308280	 5.542268	 9.279602	-61.672700	-30.225560	-42.572030	-29.125250	-2.027600	 6.559038	 9.033609	-5.188889	 0.308190	 3.541030	-5.234859	 0.342567	 0.430617	-2.067615	-10.996630	-1.467469	 2.368419	 2.366373	-2.073085	 92.904100	 62.688240	-172.143300	-19.832240	 18.478430	 38.250530	-9.093230	-2.097881	 55.491310	 11.652490	-40.749790	 22.454620	 1.803333	 3.979147	-15.098590	 4.898592	 3.004813	-9.310344	 5.224449	 0.395017	 2.014677
-0.010942	 0.171141	 1.279322	 2.944382	 11.318800	-0.090281	-16.438560	-29.394750	 174.734400	 2.347532	-28.931330	 1.337948	-6.676286	 64.118970	 8.341813	-2.385833	 28.452750	 0.000004	 17.000540	-28.914520	-174.840300	-2.253271	-28.459230	 1.379530	 14.980660	 63.206840	-9.491623	 2.384659	 28.388700	-0.000001	-2.018087	 4.543249	-0.276394	-0.604028	 18.741640	-0.259555	 0.061023	-16.685940	-0.066587	-93.998600	 69.818240	 172.029000	 33.796790	 20.624880	-38.875390	 6.397917	 8.704737	-64.589760	-33.077720	-47.745710	-31.622710	-2.027600	 6.559038	 9.033609	-5.188889	 0.308190	 3.541030	-5.234859	 0.342567	 0.430617	-2.249754	-9.602022	-1.848356	 1.371737	 1.827795	-1.979450	 92.506530	 62.387970	-173.329700	-21.717160	 19.988730	 36.943120	-9.331509	-2.727506	 58.352860	 14.015100	-46.893840	 24.353530	 1.803333	 3.979147	-15.098590	 4.898592	 3.004813	-9.310344	 5.224449	 0.395017	 2.014677
-0.010958	 0.150805	 1.295662	 2.817522	 10.247860	-0.043113	-15.731580	-24.035680	 175.711600	 2.189148	-22.608750	 1.002312	-5.295262	 62.239340	 6.716414	-2.385833	 28.452750	 0.000004	 16.778250	-23.444760	-175.531200	-1.415857	-21.578520	 1.373640	 11.696970	 61.130960	-6.364952	 2.384659	 28.388700	-0.000001	-0.819960	 2.491232	-0.018230	-0.158598	 13.610920	-0.032759	-1.153810	-15.119810	-0.147297	-93.690100	 69.675580	 173.213400	 34.298810	 20.391430	-38.260050	 7.173803	 7.946345	-67.135510	-37.911830	-52.087810	-37.747130	-2.027600	 6.559038	 9.033609	-5.188889	 0.308190	 3.541030	-5.234859	 0.342567	 0.430617	-2.351761	-8.028372	-2.289462	 0.007372	 1.563665	-2.040293	 92.045430	 62.372600	-174.460300	-23.059110	 21.440590	 36.385200	-9.521436	-3.353830	 60.836100	 17.082830	-52.285270	 27.328320	 1.803333	 3.979147	-15.098590	 4.898592	 3.004813	-9.310344	 5.224449	 0.395017	 2.014677
